<svg width="199" height="119" viewBox="0 0 199 119" fill="none" xmlns="http://www.w3.org/2000/svg">
<g clip-path="url(#clip0_111_37)" filter="url(#filter0_d_111_37)">
<path d="M106.771 41.2578C108.107 48.9756 99.9111 46.9199 99.9111 46.9199C96.4811 37.2546 90.9929 38.1563 90.9929 38.1563C95.2896 41.2939 95.6145 43.9626 95.6145 43.9626C84.1688 35.8481 68.6071 42.3758 62.6857 45.4413C59.3639 40.7529 52.6481 30.2581 55.0311 25.4976C58.1724 19.2585 64.5632 22.8289 64.5632 22.8289C77.4892 22.6125 76.7671 17.9962 76.7671 17.9962C73.337 20.665 63.2273 17.9962 63.2273 17.9962C72.0011 17.9962 75.72 14.4259 75.72 14.4259C69.1848 16.0488 61.8913 9.08833 61.8913 9.08833C59.2195 -4.58009 46.8711 1.22629 46.8711 1.22629C54.5979 -0.108098 52.5398 8.07853 52.5398 8.07853C42.8634 11.5046 43.766 16.9864 43.766 16.9864C46.9073 12.6948 49.5791 12.3702 49.5791 12.3702C40.7331 24.8124 49.2542 42.1233 51.7816 46.6314C47.16 49.8411 36.3281 56.9098 31.4538 54.4574C25.2074 51.3198 28.7819 44.9364 28.7819 44.9364C28.6375 32.0253 24.0159 32.7466 24.0159 32.7466C26.6878 36.1727 24.0159 46.2708 24.0159 46.2708C24.0159 37.5071 20.4414 33.7925 20.4414 33.7925C22.0662 40.3201 15.0977 47.6051 15.0977 47.6051C1.41345 50.2739 7.22654 62.6079 7.22654 62.6079C5.89062 54.8901 14.0867 56.9458 14.0867 56.9458C17.5168 66.6111 23.005 65.7095 23.005 65.7095C18.7083 62.5719 18.3834 59.9031 18.3834 59.9031C30.4789 68.4864 47.1961 60.6965 52.251 57.9556C55.645 62.8243 61.9635 72.8502 59.6166 77.5025C56.4754 83.7417 50.0846 80.1713 50.0846 80.1713C37.1586 80.3156 37.8807 84.9318 37.8807 84.9318C41.3108 82.263 51.4205 84.9318 51.4205 84.9318C42.6467 84.9318 38.9278 88.5022 38.9278 88.5022C45.463 86.8793 52.7565 93.8397 52.7565 93.8397C55.4283 107.508 67.7766 101.702 67.7766 101.702C60.0499 103.036 62.108 94.8495 62.108 94.8495C71.7844 91.4234 70.8818 85.9416 70.8818 85.9416C67.7405 90.2333 65.0687 90.5579 65.0687 90.5579C73.7342 78.4042 65.7547 61.5621 63.0467 56.6212C67.9572 53.1951 77.8864 47.0642 82.4719 49.3723C88.7182 52.5099 85.1437 58.8933 85.1437 58.8933C85.2881 71.8044 89.9097 71.0831 89.9097 71.0831C87.2379 67.657 89.9097 57.5589 89.9097 57.5589C89.9097 66.3226 93.4842 70.0372 93.4842 70.0372C91.8595 63.5095 98.828 56.2245 98.828 56.2245C112.584 53.5918 106.771 41.2578 106.771 41.2578Z" fill="url(#paint0_linear_111_37)"/>
</g>
<g clip-path="url(#clip1_111_37)">
<path d="M122.999 29H125.32V56.4049H132.25V29H134.57V75H132.25V58.7131H125.32V75H122.999V29Z" fill="url(#paint1_linear_111_37)"/>
<path d="M151.732 29L145.979 58.7131V75H143.658V58.7131L137.872 29H139.997L144.835 53.7717L149.64 29H151.732Z" fill="url(#paint2_linear_111_37)"/>
<path d="M161.996 75H155.033V29H161.963C164.546 29 166.572 31.0481 166.572 33.5837V70.3837C166.605 72.8869 164.546 75 161.996 75ZM157.354 31.3081V72.6919H161.963C163.205 72.6919 164.284 71.6516 164.284 70.3837V33.5837C164.284 32.3484 163.238 31.2756 161.963 31.2756H157.354V31.3081Z" fill="url(#paint3_linear_111_37)"/>
<path d="M181.805 75H179.419L175.333 58.7131H172.554V75H170.233V29H177.163C179.746 29 181.772 31.0481 181.772 33.5837V54.0968C181.772 56.4049 179.974 58.3555 177.686 58.6155L181.805 75ZM172.554 56.4049H177.163C178.405 56.4049 179.484 55.3647 179.484 54.0968V33.5837C179.484 32.3484 178.438 31.2756 177.163 31.2756H172.554V56.4049Z" fill="url(#paint4_linear_111_37)"/>
<path d="M188.8 58.7131L187.198 75H185.106L189.748 29H194.357L198.966 75H196.874L195.272 58.7131H188.8ZM192.494 31.3081H191.579L189.062 56.4049H195.011L192.494 31.3081Z" fill="url(#paint5_linear_111_37)"/>
</g>
<defs>
<filter id="filter0_d_111_37" x="-0.00115967" y="0" width="114" height="119" filterUnits="userSpaceOnUse" color-interpolation-filters="sRGB">
<feFlood flood-opacity="0" result="BackgroundImageFix"/>
<feColorMatrix in="SourceAlpha" type="matrix" values="0 0 0 0 0 0 0 0 0 0 0 0 0 0 0 0 0 0 127 0" result="hardAlpha"/>
<feOffset dy="10"/>
<feGaussianBlur stdDeviation="3"/>
<feComposite in2="hardAlpha" operator="out"/>
<feColorMatrix type="matrix" values="0 0 0 0 0 0 0 0 0 0 0 0 0 0 0 0 0 0 0.25 0"/>
<feBlend mode="normal" in2="BackgroundImageFix" result="effect1_dropShadow_111_37"/>
<feBlend mode="normal" in="SourceGraphic" in2="effect1_dropShadow_111_37" result="shape"/>
</filter>
<linearGradient id="paint0_linear_111_37" x1="56.9955" y1="0.00115967" x2="56.9955" y2="102.927" gradientUnits="userSpaceOnUse">
<stop stop-color="#C0B7E8"/>
<stop offset="1" stop-color="#8176AF"/>
</linearGradient>
<linearGradient id="paint1_linear_111_37" x1="128.785" y1="29" x2="128.785" y2="75" gradientUnits="userSpaceOnUse">
<stop stop-color="#C0B7E8"/>
<stop offset="1" stop-color="#8176AF"/>
</linearGradient>
<linearGradient id="paint2_linear_111_37" x1="144.802" y1="29" x2="144.802" y2="75" gradientUnits="userSpaceOnUse">
<stop stop-color="#C0B7E8"/>
<stop offset="1" stop-color="#8176AF"/>
</linearGradient>
<linearGradient id="paint3_linear_111_37" x1="160.803" y1="29" x2="160.803" y2="75" gradientUnits="userSpaceOnUse">
<stop stop-color="#C0B7E8"/>
<stop offset="1" stop-color="#8176AF"/>
</linearGradient>
<linearGradient id="paint4_linear_111_37" x1="176.019" y1="29" x2="176.019" y2="75" gradientUnits="userSpaceOnUse">
<stop stop-color="#C0B7E8"/>
<stop offset="1" stop-color="#8176AF"/>
</linearGradient>
<linearGradient id="paint5_linear_111_37" x1="192.036" y1="29" x2="192.036" y2="75" gradientUnits="userSpaceOnUse">
<stop stop-color="#C0B7E8"/>
<stop offset="1" stop-color="#8176AF"/>
</linearGradient>
<clipPath id="clip0_111_37">
<rect width="102" height="103" fill="white" transform="translate(5.99884)"/>
</clipPath>
<clipPath id="clip1_111_37">
<rect width="76" height="46" fill="white" transform="translate(122.999 29)"/>
</clipPath>
</defs>
</svg>
